<?xml version="1.0" standalone="no"?>
<!DOCTYPE svg PUBLIC "-//W3C//DTD SVG 1.1//EN" "http://www.w3.org/Graphics/SVG/1.1/DTD/svg11.dtd">
<svg xmlns="http://www.w3.org/2000/svg"><defs><font id="flaticon" horiz-adv-x="512"><font-face units-per-em="512" ascent="448" descent="-64" x-height="240" cap-height="480"/><missing-glyph horiz-adv-x="512"/><glyph unicode="&#xE000;" glyph-name="airport7" horiz-adv-x="512" d="M455.842 179.312l-49.624 28.786v9.422c0 6.268 -5.08 11.348 -11.348 11.348c-5.07 0 -9.359 -3.325 -10.815 -7.912 l-25.442 14.759v11.144c0 6.268 -5.08 11.348 -11.348 11.348c-5.611 0 -10.259 -4.076 -11.173 -9.428l-28.66 16.626V348.909 c0 17.646 -5.054 34.323 -14.229 46.961c-9.702 13.361 -22.831 20.72 -36.968 20.72s-27.266 -7.358 -36.968 -20.72 c-9.176 -12.638 -14.229 -29.315 -14.229 -46.961v-83.232l-29.131 -16.899c-0.914 5.352 -5.562 9.428 -11.173 9.428 c-6.268 0 -11.348 -5.08 -11.348 -11.348v-11.144l-25.442 -14.759c-1.456 4.587 -5.746 7.912 -10.815 7.912 c-6.268 0 -11.348 -5.08 -11.348 -11.348v-9.422l-49.624 -28.786c-2.313 -1.342 -3.737 -3.813 -3.737 -6.487v-35.539 c0 -2.398 1.147 -4.652 3.086 -6.063c1.299 -0.945 2.848 -1.437 4.415 -1.437c0.773 0 1.55 0.119 2.304 0.362l142.813 46.107v-87.184 v-23.725c0 -1.831 0.059 -3.742 0.169 -5.712l-45.528 -46.25c-1.381 -1.403 -2.155 -3.293 -2.155 -5.262v-19.495c0 -4.143 3.358 -7.5 7.5 -7.5 h67.024c6.754 -8.251 14.815 -13.718 24.187 -13.718c9.371 0 17.433 5.467 24.187 13.718h66.554c4.142 0 7.5 3.357 7.5 7.5v19.495 c0 1.969 -0.774 3.858 -2.155 5.262l-45.082 45.797c0.127 2.131 0.194 4.193 0.194 6.165v23.725v87.032l142.342 -45.956 c0.754 -0.243 1.531 -0.362 2.304 -0.362c1.567 0 3.116 0.491 4.415 1.437c1.939 1.411 3.086 3.665 3.086 6.063v35.539 C459.579 175.498 458.155 177.97 455.842 179.312zM204.567 191.866L67.421 147.588v20.916l137.146 79.559V191.866zM172.524 -3.872v8.923l35.085 35.643c0.083 -0.439 0.159 -0.875 0.246 -1.314c0 -0.002 0 -0.004 0 -0.005 c2.477 -12.536 7.341 -29.144 14.591 -43.246H172.524zM256.235 -17.59c-11.835 0 -27.251 27.418 -33.664 59.872c0 0.001 0 0.002 0 0.003 c-1.657 8.391 -2.533 16.365 -2.533 23.062v23.725V348.909c0 29.048 16.238 52.681 36.197 52.681s36.197 -23.633 36.197 -52.681v-87.825 v-74.678v-97.335v-23.725c0 -6.699 -0.876 -14.673 -2.532 -23.062c0 -0.001 0 -0.002 0 -0.003C283.487 9.828 268.07 -17.59 256.235 -17.59zM339.476 5.051v-8.923h-49.452c7.25 14.103 12.114 30.71 14.592 43.246c0 0.001 0 0.003 0 0.005 c0.061 0.305 0.112 0.606 0.17 0.911L339.476 5.051zM444.579 147.588l-137.146 44.278v56.196l137.146 -79.559V147.588z"/><glyph unicode="&#xE001;" glyph-name="alarm53" horiz-adv-x="512" d="M418.651 356.232c-21.536 24.177 -58.441 26.7 -83.07 6.002C311.678 374.437 284.629 381.326 256 381.326 s-55.678 -6.89 -79.581 -19.092c-24.628 20.698 -61.535 18.176 -83.07 -6.002c-20.833 -23.392 -19.875 -58.737 1.397 -81.007 c-9.229 -21.329 -14.356 -44.83 -14.356 -69.51c0 -67.069 37.799 -125.469 93.208 -155.037l-35.199 -35.2c-2.929 -2.93 -2.929 -7.678 0 -10.607 c1.464 -1.464 3.384 -2.196 5.303 -2.196s3.839 0.732 5.303 2.196l38.953 38.954c20.936 -8.833 43.928 -13.721 68.042 -13.721 s47.105 4.888 68.042 13.721l38.953 -38.954c1.464 -1.464 3.384 -2.196 5.303 -2.196c1.919 0 3.839 0.732 5.303 2.196 c2.929 2.93 2.929 7.678 0 10.607l-35.199 35.2c55.409 29.568 93.208 87.968 93.208 155.037c0 24.68 -5.127 48.181 -14.356 69.51 C438.526 297.494 439.485 332.84 418.651 356.232zM407.45 346.255c14.31 -16.065 14.899 -39.664 2.616 -56.334 c-14.352 26.155 -35.171 48.277 -60.289 64.205C367.986 365.861 392.6 362.928 407.45 346.255zM104.55 346.254 c14.852 16.672 39.464 19.606 57.673 7.872c-25.118 -15.929 -45.937 -38.05 -60.289 -64.206C89.65 306.591 90.24 330.189 104.55 346.254 zM256 45.104c-88.561 0 -160.611 72.05 -160.611 160.611S167.439 366.326 256 366.326s160.611 -72.05 160.611 -160.611 S344.561 45.104 256 45.104zM263.5 308.768c0 4.142 -3.358 7.5 -7.5 7.5s-7.5 -3.358 -7.5 -7.5v-112.181c0 -4.142 3.358 -7.5 7.5 -7.5h115.154 c4.142 0 7.5 3.358 7.5 7.5s-3.358 7.5 -7.5 7.5H263.5V308.768z"/><glyph unicode="&#xE002;" glyph-name="basic11" horiz-adv-x="512" d="M257.998 299.542c-70.537 0 -127.924 -57.387 -127.924 -127.924s57.387 -127.924 127.924 -127.924 c70.538 0 127.926 57.387 127.926 127.924S328.536 299.542 257.998 299.542zM257.998 58.693 c-62.267 0 -112.924 50.658 -112.924 112.924s50.657 112.924 112.924 112.924c62.268 0 112.926 -50.658 112.926 -112.924 S320.266 58.693 257.998 58.693zM480.603 347.384c-2.399 1.316 -5.329 1.219 -7.64 -0.255c-2.265 -1.446 -55.465 -36.756 -55.465 -154.603 c0 -4.142 3.357 -7.5 7.5 -7.5h44.5v-141.833c0 -4.142 3.357 -7.5 7.5 -7.5s7.5 3.358 7.5 7.5V192.526v10.188V340.807 C484.498 343.546 483.005 346.067 480.603 347.384zM432.576 200.026c1.101 52.696 13.688 86.055 24.325 105.006 c4.38 7.802 8.777 13.833 12.597 18.346v-120.664v-2.688H432.576zM106.998 348.307c-4.143 0 -7.5 -3.358 -7.5 -7.5v-93.995c0 -1.378 -1.121 -2.5 -2.5 -2.5H78.5v96.495c0 4.142 -3.357 7.5 -7.5 7.5 s-7.5 -3.358 -7.5 -7.5v-96.495H45.002c-1.379 0 -2.5 1.122 -2.5 2.5v93.995c0 4.142 -3.357 7.5 -7.5 7.5s-7.5 -3.358 -7.5 -7.5v-93.995 c0 -9.649 7.851 -17.5 17.5 -17.5H63.5v-186.119c0 -4.142 3.357 -7.5 7.5 -7.5s7.5 3.358 7.5 7.5V229.312h18.498 c9.649 0 17.5 7.851 17.5 17.5v93.995C114.498 344.949 111.141 348.307 106.998 348.307z"/><glyph unicode="&#xE003;" glyph-name="bathtub6" horiz-adv-x="512" d="M438 210.167H81.5V293.5c0 9.006 7.327 16.333 16.333 16.333c8.489 0 15.48 -6.512 16.256 -14.801l-12.565 -9.348 c-3.323 -2.472 -4.013 -7.17 -1.541 -10.494c1.472 -1.979 3.733 -3.024 6.023 -3.024c1.556 0 3.126 0.483 4.471 1.483l41 30.5 c3.323 2.472 4.013 7.17 1.541 10.494c-2.472 3.323 -7.17 4.014 -10.494 1.541l-15.435 -11.482 c-4.519 11.759 -15.924 20.131 -29.255 20.131c-17.277 0 -31.333 -14.056 -31.333 -31.333v-90.833v-6.834v-43.166 c0 -31.706 25.794 -57.5 57.5 -57.5h3.06l-23.196 -23.196c-2.929 -2.93 -2.929 -7.678 0 -10.607c1.464 -1.464 3.384 -2.196 5.303 -2.196 s3.839 0.732 5.303 2.196l33.804 33.804h215.453l33.804 -33.804c1.464 -1.464 3.384 -2.196 5.303 -2.196s3.839 0.732 5.303 2.196 c2.929 2.93 2.929 7.678 0 10.607l-23.196 23.196H388c31.706 0 57.5 25.794 57.5 57.5v50 C445.5 206.809 442.142 210.167 438 210.167zM430.5 152.667c0 -23.435 -19.065 -42.5 -42.5 -42.5H124c-23.435 0 -42.5 19.065 -42.5 42.5 v42.5h349V152.667zM116.592 253.078c2.668 -2.669 6.995 -2.669 9.664 0c2.668 2.668 2.668 6.995 0 9.664 c-2.668 2.668 -13.178 3.514 -13.178 3.514S113.923 255.746 116.592 253.078zM161.322 258.152c-2.668 2.668 -13.178 3.514 -13.178 3.514s0.845 -10.51 3.514 -13.178c2.668 -2.669 6.995 -2.669 9.664 0 C163.991 251.156 163.991 255.483 161.322 258.152zM148.144 229.333c0 0 0.845 -10.51 3.514 -13.178c2.668 -2.669 6.995 -2.669 9.664 0c2.668 2.668 2.668 6.995 0 9.664 C158.653 228.487 148.144 229.333 148.144 229.333zM194.912 240.898c2.668 2.668 2.668 6.995 0 9.664c-2.668 2.668 -13.178 3.514 -13.178 3.514s0.845 -10.51 3.514 -13.178 C187.917 238.229 192.243 238.229 194.912 240.898zM155.248 275.912c2.668 -2.669 6.995 -2.669 9.664 0c2.668 2.669 2.668 6.995 0 9.664 c-2.668 2.668 -13.178 3.514 -13.178 3.514S152.579 278.581 155.248 275.912z"/><glyph unicode="&#xE004;" glyph-name="bed25" horiz-adv-x="512" d="M448.333 252.873c-4.143 0 -7.5 -3.358 -7.5 -7.5v-27.631H165.912c3.781 4.422 5.938 9.575 5.938 15.128 c0 16.894 -19.86 30.127 -45.215 30.127c-25.352 0 -45.211 -13.233 -45.211 -30.127c0 -5.553 2.156 -10.706 5.938 -15.128H71.167v94.023 c0 4.142 -3.357 7.5 -7.5 7.5s-7.5 -3.358 -7.5 -7.5v-101.523v-16.536v-14.726v-29.908v-76.838c0 -4.142 3.357 -7.5 7.5 -7.5s7.5 3.358 7.5 7.5 v69.338h369.666v-69.338c0 -4.142 3.357 -7.5 7.5 -7.5s7.5 3.358 7.5 7.5v76.838v61.17v35.131 C455.833 249.515 452.476 252.873 448.333 252.873zM96.425 232.87c0 7.141 12.92 15.127 30.211 15.127 c17.293 0 30.215 -7.986 30.215 -15.127c0 -7.141 -12.922 -15.128 -30.215 -15.128C109.345 217.742 96.425 225.729 96.425 232.87zM71.167 156.572V178.98v14.726v9.036h369.666v-46.17H71.167z"/><glyph unicode="&#xE005;" glyph-name="camera83" horiz-adv-x="512" d="M256 255.33c-43.652 0 -79.167 -35.514 -79.167 -79.166s35.514 -79.166 79.167 -79.166s79.167 35.514 79.167 79.166 S299.652 255.33 256 255.33zM256 111.998c-35.381 0 -64.167 28.785 -64.167 64.166S220.619 240.33 256 240.33 s64.167 -28.785 64.167 -64.166S291.381 111.998 256 111.998zM149.513 117.666c-5.702 -3.631 -7.379 -11.197 -3.746 -16.9c3.633 -5.701 11.2 -7.377 16.902 -3.744 c5.702 3.633 14.069 23.479 14.069 23.479S155.215 121.301 149.513 117.666zM477.198 250.338h-15.391v9.637v32.393c0 4.143 -3.358 7.5 -7.5 7.5h-80.874H168.753v24.172c0 4.143 -3.358 7.5 -7.5 7.5 h-53.861c-4.142 0 -7.5 -3.357 -7.5 -7.5v-24.172H57.693c-4.142 0 -7.5 -3.357 -7.5 -7.5v-42.029H34.802c-4.142 0 -7.5 -3.357 -7.5 -7.5 s3.358 -7.5 7.5 -7.5h15.391v-175.377c0 -4.143 3.358 -7.5 7.5 -7.5h396.614c4.142 0 7.5 3.357 7.5 7.5V235.338h15.391 c4.142 0 7.5 3.357 7.5 7.5S481.34 250.338 477.198 250.338zM446.807 284.867v-17.393h-65.874v17.393H446.807zM114.892 316.539 h38.861v-16.672h-38.861V316.539zM65.193 67.461V284.867h42.199h53.861h204.681v-24.893c0 -4.143 3.358 -7.5 7.5 -7.5h73.374v-185.014 H65.193z"/><glyph unicode="&#xE006;" glyph-name="car164" horiz-adv-x="512" d="M459.373 158.812c-13.593 5.773 -39.837 11.161 -62.991 15.914c-13.314 2.733 -29.831 6.125 -33.277 7.754 c-13.926 9.912 -27.999 18.879 -41.838 26.66c-13.877 7.802 -29.2 15.39 -47.197 18.071c-12.467 1.856 -25.217 3.103 -37.895 3.706 c-37.936 1.806 -69.429 0.325 -99.106 -4.664c-3.172 -0.533 -6.351 -1.13 -9.425 -1.708c-2.81 -0.527 -5.714 -1.072 -8.548 -1.556 c-0.972 -0.166 -1.901 -0.521 -2.735 -1.047L58.898 185.75c-28.089 -4.235 -34.052 -52.766 -34.683 -58.775 c-1.545 -12.661 -2.295 -26.061 6.614 -38.496c6.212 -8.664 14.899 -12.641 26.546 -12.144l14.5 -0.007 c4.13 -20.926 22.614 -36.758 44.733 -36.758c22.104 0 40.58 15.812 44.727 36.717l189.518 -0.086 c4.18 -20.863 22.637 -36.631 44.711 -36.631c8.885 0 17.497 2.558 24.905 7.397c10.392 6.786 17.413 17.317 19.793 29.194 l36.745 -0.017c7.111 0 8.69 7.759 9.449 11.487C489.567 102.91 490.764 145.479 459.373 158.812zM271.859 212.374 c15.596 -2.323 29.431 -9.212 42.057 -16.31c9.506 -5.344 19.134 -11.286 28.753 -17.716H221.201v38.11 c4.652 -0.121 9.397 -0.292 14.261 -0.524C247.642 215.354 259.888 214.156 271.859 212.374zM123.1 208.459 c2.464 0.433 4.921 0.895 7.312 1.343c3.006 0.564 6.113 1.148 9.145 1.658c20.664 3.473 42.325 5.169 66.646 5.186v-38.298H75.291 L123.1 208.459zM116.609 54.57c-16.874 0 -30.602 13.728 -30.602 30.602s13.728 30.602 30.602 30.602s30.602 -13.728 30.602 -30.602 S133.483 54.57 116.609 54.57zM412.268 59.526c-4.964 -3.242 -10.739 -4.956 -16.703 -4.956c-16.874 0 -30.602 13.728 -30.602 30.602 s13.728 30.602 30.602 30.602s30.602 -13.728 30.602 -30.602C426.166 74.797 420.971 65.21 412.268 59.526zM471.889 91.147 l-31.129 0.014c-2.943 22.323 -22.082 39.612 -45.195 39.612c-23.1 0 -42.229 -17.269 -45.19 -39.572l-188.585 0.086 c-2.999 22.262 -22.109 39.486 -45.18 39.486c-23.056 0 -42.157 -17.203 -45.174 -39.444l-14.22 0.006 c-0.079 -0.008 -0.233 -0.003 -0.351 -0.008c-6.701 -0.318 -10.581 1.341 -13.843 5.89c-5.804 8.101 -5.244 17.091 -3.91 28.002 c0.005 0.042 0.011 0.089 0.015 0.13c1.063 10.099 5.088 27.853 12.096 37.999h326.255c4.444 -0.955 9.687 -2.042 15.888 -3.315 c21.354 -4.384 47.931 -9.84 60.145 -15.027c7 -2.973 12.215 -8.688 15.501 -16.987C474.29 114.681 473.263 98.455 471.889 91.147zM483.867 260.808L260.031 343.96c-1.684 0.626 -3.539 0.626 -5.223 0L30.973 260.808c-3.883 -1.443 -5.861 -5.76 -4.419 -9.643 c1.44 -3.882 5.759 -5.858 9.642 -4.419l221.225 82.182l221.225 -82.182c0.86 -0.32 1.743 -0.471 2.61 -0.471 c3.045 0 5.909 1.868 7.031 4.89C489.729 255.048 487.75 259.365 483.867 260.808z"/><glyph unicode="&#xE007;" glyph-name="cocktail31" horiz-adv-x="512" d="M368.743 225.246c35.834 0.401 64.866 29.662 64.866 65.589c0 36.177 -29.432 65.608 -65.608 65.608 c-33.64 0 -61.432 -25.453 -65.167 -58.108h-95.085l-6.405 55.894c-0.35 3.051 -2.525 5.582 -5.489 6.385l-108 29.271 c-3.997 1.085 -8.117 -1.279 -9.201 -5.277c-1.083 -3.998 1.279 -8.117 5.277 -9.201l103.09 -27.94l5.63 -49.132h-55.667 c-2.124 0 -4.148 -0.9 -5.57 -2.478c-1.422 -1.577 -2.109 -3.683 -1.89 -5.795l30 -289.48c0.396 -3.822 3.617 -6.727 7.46 -6.727H338 c3.843 0 7.064 2.905 7.46 6.727l23.053 222.441c0 0.009 0.001 0.018 0.002 0.027L368.743 225.246zM368 341.443 c27.906 0 50.608 -22.703 50.608 -50.608c0 -27.134 -21.466 -49.342 -48.307 -50.55l5.159 49.777c0.219 2.112 -0.468 4.218 -1.89 5.795 c-1.422 1.577 -3.446 2.478 -5.57 2.478h-50.049C321.586 322.696 342.643 341.443 368 341.443zM359.683 283.335l-5.392 -52.032 H215.429l-5.962 52.032H359.683zM194.369 283.335l5.962 -52.032h-49.639l-5.392 52.032H194.369zM331.237 8.854H173.745 l-21.499 207.449h49.803l16.391 -143.035c0.438 -3.825 3.682 -6.646 7.442 -6.646c0.285 0 0.573 0.016 0.863 0.049 c4.115 0.472 7.069 4.19 6.597 8.305l-16.195 141.327h135.588L331.237 8.854z"/><glyph unicode="&#xE008;" glyph-name="coffee69" horiz-adv-x="512" d="M464.574 189.652c-1.82 13.686 -10.098 25.986 -22.715 33.749c-9.018 5.549 -19.273 8.124 -28.969 7.521 c-0.031 4.115 -3.373 7.442 -7.496 7.442H54.23c-4.143 0 -7.5 -3.357 -7.5 -7.5c0 -34.648 9.727 -68.381 28.131 -97.549 c13.785 -21.848 31.971 -40.442 53.275 -54.69c-19.482 -2.626 -36.213 -5.993 -49.117 -9.925c-13.861 -4.223 -32.289 -11.425 -32.289 -25.157 c0 -11.696 13.695 -17.92 18.195 -19.966c9.381 -4.264 22.609 -8.054 39.316 -11.265c33.615 -6.462 78.209 -10.021 125.57 -10.021 c47.359 0 91.955 3.559 125.57 10.021c16.707 3.211 29.934 7.001 39.316 11.265c4.5 2.046 18.195 8.27 18.195 19.966 c0 13.732 -18.428 20.935 -32.289 25.157c-12.904 3.932 -29.635 7.299 -49.117 9.925c7.379 4.936 14.393 10.38 20.969 16.315 c6.223 2.151 12.586 4.244 18.762 6.271c25.283 8.3 49.166 16.139 66.879 28.726C459.254 144.973 467.914 164.506 464.574 189.652zM373.613 55.126c19.748 -5.652 23.605 -10.583 24.205 -11.581c-0.807 -1.321 -7.453 -9.653 -48.781 -17.159 c-32.287 -5.864 -74.629 -9.094 -119.225 -9.094s-86.938 3.229 -119.225 9.094c-41.328 7.506 -47.977 15.838 -48.783 17.159 c0.6 0.998 4.457 5.929 24.207 11.581c16.098 4.607 38.203 8.383 64.01 10.947c24.98 -12.127 51.809 -18.291 79.791 -18.291 s54.811 6.164 79.791 18.291C335.41 63.509 357.516 59.733 373.613 55.126zM344.301 107.702l-1.59 -1.471 c-11.188 -10.089 -23.855 -18.793 -37.818 -25.777c-23.441 -11.727 -48.703 -17.672 -75.08 -17.672s-51.639 5.945 -75.08 17.672 c-55.119 27.57 -90.176 81.858 -92.84 142.91h335.771l-0.203 -4.492C394.443 175.775 375.25 136.347 344.301 107.702zM373.873 117.876c3.879 4.942 7.516 10.094 10.889 15.439c15.73 24.93 25.115 53.194 27.514 82.516 c7.039 0.849 14.822 -0.959 21.725 -5.205c8.758 -5.389 14.482 -13.754 15.705 -22.95C455.129 146.86 418.363 132.593 373.873 117.876zM197.777 282.352c-2.316 -3.435 -1.41 -8.096 2.023 -10.411c1.287 -0.868 2.744 -1.283 4.188 -1.283 c2.408 0 4.775 1.159 6.225 3.308c5.668 8.404 12.824 28.231 -0.66 43.113c-8.732 9.637 0.074 22.247 0.508 22.855 c2.426 3.337 1.701 8.012 -1.627 10.456c-3.338 2.449 -8.033 1.731 -10.484 -1.607c-5.785 -7.88 -13.127 -26.751 0.488 -41.776 C207.373 297.145 198.154 282.924 197.777 282.352zM249.412 312.215c-2.316 -3.435 -1.41 -8.096 2.025 -10.411c1.285 -0.867 2.744 -1.283 4.186 -1.283 c2.41 0 4.777 1.159 6.225 3.308c5.668 8.405 12.824 28.232 -0.66 43.114c-8.732 9.637 0.074 22.247 0.51 22.855 c2.426 3.337 1.701 8.012 -1.629 10.456c-3.336 2.45 -8.031 1.731 -10.484 -1.607c-5.783 -7.88 -13.127 -26.751 0.488 -41.776 C259.008 327.009 249.789 312.787 249.412 312.215z"/><glyph unicode="&#xE009;" glyph-name="compass108" horiz-adv-x="512" d="M407.671 343.671C367.158 384.183 313.294 406.494 256 406.494c-57.293 0 -111.157 -22.312 -151.67 -62.823 C63.817 303.158 41.506 249.294 41.506 192s22.312 -111.158 62.824 -151.671c40.513 -40.512 94.377 -62.823 151.67 -62.823 c57.294 0 111.158 22.312 151.671 62.823c40.512 40.513 62.823 94.377 62.823 151.671S448.183 303.158 407.671 343.671zM263.5 -7.339v20.534c0 4.143 -3.357 7.5 -7.5 7.5s-7.5 -3.357 -7.5 -7.5v-20.534C144.452 -3.473 60.528 80.452 56.661 184.5h20.535 c4.143 0 7.5 3.357 7.5 7.5s-3.357 7.5 -7.5 7.5H56.661C60.528 303.548 144.452 387.473 248.5 391.339v-20.534 c0 -4.143 3.357 -7.5 7.5 -7.5s7.5 3.357 7.5 7.5V391.339c104.048 -3.866 187.972 -87.791 191.839 -191.839h-20.534 c-4.143 0 -7.5 -3.357 -7.5 -7.5s3.357 -7.5 7.5 -7.5h20.534C451.472 80.452 367.548 -3.473 263.5 -7.339zM256 358.592c-91.859 0 -166.592 -74.732 -166.592 -166.592c0 -91.86 74.732 -166.594 166.592 -166.594S422.593 100.14 422.593 192 C422.593 283.859 347.859 358.592 256 358.592zM256 40.406c-83.588 0 -151.592 68.005 -151.592 151.594 c0 83.588 68.004 151.592 151.592 151.592c83.589 0 151.593 -68.004 151.593 -151.592C407.593 108.411 339.589 40.406 256 40.406zM342.5 288.883l-109.392 -71.841c-0.856 -0.563 -1.589 -1.295 -2.151 -2.151l-71.841 -109.39 c-1.952 -2.972 -1.549 -6.906 0.965 -9.421c1.449 -1.448 3.37 -2.196 5.307 -2.196c1.423 0 2.855 0.404 4.114 1.231l109.39 71.841 c0.856 0.563 1.589 1.295 2.151 2.151l71.843 109.39c1.952 2.972 1.549 6.906 -0.965 9.421 C349.406 290.431 345.471 290.837 342.5 288.883zM269.358 178.641l-77.833 -51.116l51.116 77.833l77.835 51.117L269.358 178.641zM244 191.999C244 198.627417 249.372583 204 256 204C262.627417 204 268 198.627417 268 191.999C268 185.372583 262.627417 180 256 180C249.372583 180 244 185.372583 244 191.999Z"/><glyph unicode="&#xE00A;" glyph-name="credit104" horiz-adv-x="512" d="M444.529 330.679H67.471c-4.143 0 -7.5 -3.358 -7.5 -7.5v-51.112V217.4v-156.579c0 -4.143 3.357 -7.5 7.5 -7.5h377.059 c4.143 0 7.5 3.357 7.5 7.5V217.4v54.667v51.112C452.029 327.321 448.672 330.679 444.529 330.679zM437.029 315.679v-36.112 H74.971v36.112H437.029zM437.029 224.9H74.971v39.667h362.059V224.9zM74.971 68.321V209.9h362.059v-141.579H74.971zM370.05 161.382c-7.547 0 -14.524 -2.485 -20.158 -6.679c-5.635 4.193 -12.611 6.679 -20.158 6.679 c-18.656 0 -33.834 -15.178 -33.834 -33.833c0 -18.656 15.178 -33.834 33.834 -33.834c7.547 0 14.523 2.485 20.158 6.679 c5.634 -4.193 12.611 -6.679 20.158 -6.679c18.655 0 33.833 15.178 33.833 33.834C403.883 146.204 388.705 161.382 370.05 161.382zM310.899 127.549c0 10.385 8.449 18.833 18.834 18.833c3.828 0 7.389 -1.154 10.364 -3.124c-2.474 -4.698 -3.882 -10.041 -3.882 -15.709 s1.408 -11.012 3.882 -15.709c-2.976 -1.971 -6.536 -3.125 -10.364 -3.125C319.349 108.715 310.899 117.164 310.899 127.549zM370.05 108.715c-3.828 0 -7.389 1.154 -10.365 3.125c2.475 4.698 3.882 10.041 3.882 15.709s-1.408 11.011 -3.882 15.708 c2.977 1.97 6.537 3.125 10.365 3.125c10.385 0 18.833 -8.448 18.833 -18.833S380.435 108.715 370.05 108.715z"/><glyph unicode="&#xE00B;" glyph-name="do11" horiz-adv-x="512" d="M255.999 410.621c-54.937 0 -99.63 -44.694 -99.629 -99.546c-0.015 -1.234 0.085 -12.281 7.756 -20.039 c4.518 -4.57 10.75 -6.985 18.021 -6.985c7.276 0 13.527 2.408 18.076 6.964c7.689 7.7 7.896 18.648 7.895 19.86 c0 24.927 19.879 45.207 44.313 45.207s44.313 -19.879 44.313 -44.313c0 -28.39 -27.345 -40.354 -59.008 -54.207 c-38.085 -16.663 -81.251 -35.549 -81.251 -89.095v-187.588c0 -4.143 3.357 -7.5 7.5 -7.5h184.027c4.143 0 7.5 3.357 7.5 7.5V309.662 c0.077 0.432 0.117 0.875 0.117 1.328C355.631 365.927 310.937 410.621 255.999 410.621zM340.514 313.521v-325.142H171.486V168.467 c0 43.735 35.102 59.094 72.264 75.353c33.429 14.626 67.995 29.75 67.995 67.949c0 32.706 -26.607 59.313 -59.313 59.313 c-15.822 0 -30.739 -6.351 -42.003 -17.882c-11.163 -11.43 -17.311 -26.461 -17.311 -42.275c-0.043 -2.785 -0.963 -11.874 -10.971 -11.874 c-4.565 0 -7.379 1.563 -9.124 5.068c-1.616 3.246 -1.654 6.811 -1.654 6.871c0 46.666 37.965 84.631 84.63 84.631 c45.526 0 82.772 -36.137 84.564 -81.231C340.53 314.104 340.514 313.814 340.514 313.521z"/><glyph unicode="&#xE00C;" glyph-name="folder216" horiz-adv-x="512" d="M395.478 379.5L395.478 379.5h-76.733H116.522c-4.143 0 -7.5 -3.357 -7.5 -7.5v-360c0 -4.143 3.357 -7.5 7.5 -7.5h202.222h76.733 c4.143 0 7.5 3.357 7.5 7.5v76.733V372C402.978 376.143 399.62 379.5 395.478 379.5zM387.977 364.5v-51.127L336.851 364.5H387.977zM124.022 364.5h191.614l72.341 -72.342v-200.317L315.637 19.5H124.022V364.5zM387.978 19.5h-51.127l51.127 51.127V19.5zM334.828 192c0 43.466 -35.362 78.828 -78.828 78.828S177.172 235.466 177.172 192s35.362 -78.828 78.828 -78.828 S334.828 148.534 334.828 192zM256 129.304c-5.564 0 -12.732 9.991 -17.186 27.186c5.576 -0.55 11.332 -0.839 17.186 -0.839 s11.609 0.289 17.186 0.839C268.732 139.295 261.564 129.304 256 129.304zM256 170.65c-7.221 0 -13.946 0.451 -20.109 1.24 c-0.789 6.163 -1.24 12.889 -1.24 20.109s0.451 13.946 1.24 20.109c6.163 0.789 12.889 1.24 20.109 1.24s13.946 -0.451 20.109 -1.24 c0.789 -6.163 1.24 -12.889 1.24 -20.109s-0.451 -13.946 -1.24 -20.109C269.946 171.102 263.221 170.65 256 170.65zM193.304 192 c0 5.564 9.991 12.732 27.186 17.186c-0.55 -5.576 -0.839 -11.332 -0.839 -17.186s0.289 -11.609 0.839 -17.186 C203.295 179.268 193.304 186.436 193.304 192zM256 254.696c5.564 0 12.732 -9.991 17.186 -27.186 c-5.576 0.55 -11.332 0.839 -17.186 0.839s-11.609 -0.289 -17.186 -0.839C243.268 244.705 250.436 254.696 256 254.696zM291.511 209.186c17.194 -4.453 27.186 -11.621 27.186 -17.186s-9.991 -12.732 -27.186 -17.186c0.55 5.576 0.839 11.332 0.839 17.186 S292.061 203.609 291.511 209.186zM315.023 216.266c-2.03 1.08 -4.198 2.11 -6.536 3.071c-5.782 2.376 -12.327 4.308 -19.38 5.771 c-1.463 7.053 -3.395 13.598 -5.771 19.38c-0.961 2.338 -1.991 4.506 -3.072 6.536C295.973 244.543 308.543 231.973 315.023 216.266zM231.735 251.023c-1.081 -2.03 -2.111 -4.198 -3.072 -6.536c-2.376 -5.782 -4.308 -12.327 -5.771 -19.38 c-7.053 -1.463 -13.598 -3.395 -19.38 -5.771c-2.338 -0.961 -4.506 -1.991 -6.536 -3.071C203.457 231.973 216.027 244.543 231.735 251.023zM196.977 167.734c2.03 -1.08 4.198 -2.11 6.536 -3.071c5.782 -2.376 12.327 -4.308 19.38 -5.771c1.463 -7.052 3.395 -13.596 5.771 -19.379 c0.961 -2.338 1.991 -4.506 3.072 -6.536C216.027 139.457 203.457 152.027 196.977 167.734zM280.265 132.977 c1.081 2.03 2.111 4.198 3.072 6.536c2.376 5.783 4.308 12.327 5.771 19.379c7.053 1.464 13.598 3.396 19.38 5.771 c2.338 0.961 4.506 1.991 6.536 3.071C308.543 152.027 295.973 139.457 280.265 132.977z"/><glyph unicode="&#xE00D;" glyph-name="hamburger7" horiz-adv-x="512" d="M475.442 192c7.524 6.13 12.342 15.463 12.342 25.903c0 18.418 -14.984 33.403 -33.403 33.403h-2.832 c-2.541 35.174 -22.926 67.83 -58.058 92.629C356.668 369.93 307.839 384.245 256 384.245s-100.668 -14.315 -137.492 -40.31 c-35.132 -24.799 -55.517 -57.455 -58.058 -92.629h-2.832c-18.418 0 -33.403 -14.984 -33.403 -33.403c0 -10.44 4.817 -19.773 12.342 -25.903 c-7.525 -6.13 -12.342 -15.463 -12.342 -25.903c0 -18.418 14.984 -33.403 33.403 -33.403h2.832c2.541 -35.174 22.926 -67.83 58.058 -92.629 c36.824 -25.995 85.653 -40.31 137.492 -40.31s100.668 14.315 137.492 40.31c35.132 24.799 55.517 57.455 58.058 92.629h2.832 c18.418 0 33.403 14.984 33.403 33.403C487.784 176.537 482.967 185.87 475.442 192zM256 369.245 c96.081 0 174.899 -52.248 180.507 -117.939H75.493C81.101 316.998 159.919 369.245 256 369.245zM39.216 217.903 c0 10.147 8.255 18.403 18.403 18.403h10.055h376.652h10.055c10.147 0 18.403 -8.255 18.403 -18.403s-8.255 -18.403 -18.403 -18.403 H57.619C47.471 199.5 39.216 207.755 39.216 217.903zM256 14.755c-96.081 0 -174.899 52.248 -180.507 117.939h361.014 C430.899 67.002 352.081 14.755 256 14.755zM454.381 147.694h-10.055H67.674H57.619c-10.147 0 -18.403 8.255 -18.403 18.403 S47.471 184.5 57.619 184.5h396.763c10.147 0 18.403 -8.255 18.403 -18.403S464.529 147.694 454.381 147.694zM186 294.252C186 300.5228475 190.4771525 305 196 305C201.5228475 305 206 300.5228475 206 294.252C206 289.4771525 201.5228475 285 196 285C190.4771525 285 186 289.4771525 186 294.252ZM246 294.252C246 300.5228475 250.4771525 305 256 305C261.5228475 305 266 300.5228475 266 294.252C266 289.4771525 261.5228475 285 256 285C250.4771525 285 246 289.4771525 246 294.252ZM306 294.252C306 300.5228475 310.4771525 305 316 305C321.5228475 305 326 300.5228475 326 294.252C326 289.4771525 321.5228475 285 316 285C310.4771525 285 306 289.4771525 306 294.252ZM186 89.632C186 95.5228475 190.4771525 100 196 100C201.5228475 100 206 95.5228475 206 89.632C206 84.4771525 201.5228475 80 196 80C190.4771525 80 186 84.4771525 186 89.632ZM246 89.632C246 95.5228475 250.4771525 100 256 100C261.5228475 100 266 95.5228475 266 89.632C266 84.4771525 261.5228475 80 256 80C250.4771525 80 246 84.4771525 246 89.632ZM306 89.632C306 95.5228475 310.4771525 100 316 100C321.5228475 100 326 95.5228475 326 89.632C326 84.4771525 321.5228475 80 316 80C310.4771525 80 306 84.4771525 306 89.632Z"/><glyph unicode="&#xE00E;" glyph-name="hotel69" horiz-adv-x="512" d="M371 363.818h-54.5V407.68c0 4.142 -3.358 7.5 -7.5 7.5H203c-4.142 0 -7.5 -3.358 -7.5 -7.5v-43.861H141c-4.142 0 -7.5 -3.358 -7.5 -7.5 v-329.276c0 -4.142 3.358 -7.5 7.5 -7.5h24.167v-23.5c0 -4.142 3.358 -7.5 7.5 -7.5s7.5 3.358 7.5 7.5v23.5H201.6h108.8h21.433v-23.5 c0 -4.142 3.358 -7.5 7.5 -7.5s7.5 3.358 7.5 7.5v23.5H371c4.142 0 7.5 3.358 7.5 7.5V356.318C378.5 360.46 375.142 363.818 371 363.818zM210.5 400.18h91v-36.361h-91V400.18zM302.9 34.542h-93.8V221.5h93.8V34.542zM363.5 34.542h-45.6V229c0 4.142 -3.358 7.5 -7.5 7.5 H201.6c-4.142 0 -7.5 -3.358 -7.5 -7.5v-194.458h-45.6V348.818H203h160.5V34.542z"/><glyph unicode="&#xE00F;" glyph-name="hotel70" horiz-adv-x="512" d="M450.436 286.214c7.328 22.894 -7.239 53.834 -35.827 74.315c-36.5 26.148 -94.755 34.427 -154.953 -13.794l-33.956 33.956 c-2.929 2.928 -7.677 2.928 -10.607 0L41.439 207.041c-1.406 -1.407 -2.196 -3.314 -2.196 -5.304s0.79 -3.896 2.196 -5.304l73.795 -73.795 c1.407 -1.406 3.314 -2.196 5.304 -2.196s3.896 0.79 5.304 2.196l173.65 173.652c2.929 2.93 2.929 7.678 0 10.607l-29.141 29.141 c53.307 41.798 103.942 34.92 135.521 12.297c19.78 -14.171 31.926 -34.296 31.522 -50.158 c-15.089 11.295 -33.332 17.409 -52.518 17.409c-23.473 0 -45.541 -9.142 -62.14 -25.739c-13.594 -13.595 -22.193 -30.818 -24.868 -49.809 c-2.323 -16.493 0.155 -33.564 6.984 -48.666l-131.05 -131.049c-1.406 -1.407 -2.196 -3.314 -2.196 -5.304v-46.408c0 -4.142 3.357 -7.5 7.5 -7.5 h46.406c1.989 0 3.896 0.79 5.304 2.196l138.008 138.004c5.293 -0.979 10.681 -1.473 16.069 -1.474c0.001 0 -0.001 0 0.001 0 c23.467 0 45.531 9.139 62.123 25.729c16.598 16.599 25.738 38.666 25.737 62.139C472.756 249.51 464.858 270.093 450.436 286.214zM283.582 301.595L120.538 138.549L57.35 201.737L220.396 364.781l27.858 -27.858c-2.471 -2.271 -4.942 -4.629 -7.414 -7.101 c-2.929 -2.93 -2.929 -7.678 0 -10.607c2.93 -2.928 7.678 -2.928 10.607 0c2.478 2.478 4.952 4.832 7.425 7.089L283.582 301.595zM436.412 176.176c-13.759 -13.76 -32.055 -21.337 -51.517 -21.337c-5.649 0.001 -11.298 0.655 -16.786 1.947 c-2.527 0.595 -5.185 -0.161 -7.021 -1.997L222.408 16.112h-35.8v35.802l28.565 28.565l8.862 -8.86 c1.465 -1.464 3.384 -2.196 5.303 -2.196c1.92 0 3.839 0.732 5.304 2.197c2.929 2.93 2.929 7.678 -0.001 10.606l-8.861 8.859 l19.068 19.068l14.354 -14.356c1.465 -1.465 3.384 -2.197 5.304 -2.197c1.919 0 3.839 0.732 5.303 2.196 c2.93 2.929 2.93 7.678 0.001 10.606l-14.355 14.357l17.654 17.653l8.859 -8.859c1.465 -1.464 3.385 -2.196 5.304 -2.196 s3.839 0.732 5.304 2.196c2.929 2.93 2.929 7.678 0 10.607l-8.859 8.859l35.539 35.539c2.335 2.335 2.867 5.923 1.313 8.836 c-15.212 28.492 -10.077 62.99 12.777 85.844c13.765 13.766 32.066 21.347 51.532 21.347s37.767 -7.581 51.531 -21.347 c13.766 -13.765 21.348 -32.066 21.348 -51.533C457.758 208.241 450.177 189.939 436.412 176.176zM396.808 273.081c-4.42 4.422 -11.592 4.424 -16.014 0c-4.422 -4.422 -4.422 -11.592 0 -16.016l33.441 -33.441 c4.424 -4.422 11.594 -4.422 16.016 0c4.422 4.424 4.424 11.592 0 16.016L396.808 273.081z"/><glyph unicode="&#xE010;" glyph-name="hotel71" horiz-adv-x="512" d="M385.8 342.013H126.2c-4.142 0 -7.5 -3.357 -7.5 -7.5v-285.026c0 -4.143 3.358 -7.5 7.5 -7.5h259.6c4.142 0 7.5 3.357 7.5 7.5 V334.513C393.3 338.655 389.942 342.013 385.8 342.013zM378.3 56.986H133.7V327.013h244.6V56.986zM224.864 138.28h4.918l8.415 -58.511c0.531 -3.692 3.694 -6.433 7.424 -6.433h20.758c3.729 0 6.893 2.74 7.424 6.433 l8.415 58.511h4.918c4.142 0 7.5 3.357 7.5 7.5v95.111c0 4.143 -3.358 7.5 -7.5 7.5h-0.605c5.074 6.539 8.105 14.737 8.105 23.636 c0 21.304 -17.332 38.636 -38.636 38.636s-38.636 -17.332 -38.636 -38.636c0 -8.898 3.032 -17.097 8.105 -23.636h-0.605 c-4.142 0 -7.5 -3.357 -7.5 -7.5v-95.111C217.364 141.638 220.722 138.28 224.864 138.28zM279.636 233.392v-80.111h-3.917h-39.438 h-3.917v80.111H279.636zM259.88 88.337h-7.761l-7.183 49.943h22.127L259.88 88.337zM232.364 272.027 c0 13.033 10.603 23.636 23.636 23.636s23.636 -10.603 23.636 -23.636S269.033 248.392 256 248.392S232.364 258.994 232.364 272.027zM211.334 367.81L256 412.476l44.666 -44.667c1.464 -1.465 3.384 -2.197 5.303 -2.197s3.839 0.732 5.303 2.196 c2.929 2.93 2.929 7.678 0 10.607l-49.969 49.97c-1.406 1.407 -3.314 2.197 -5.303 2.197s-3.897 -0.79 -5.303 -2.196l-49.969 -49.969 c-2.929 -2.93 -2.929 -7.678 0 -10.607C203.656 364.882 208.405 364.882 211.334 367.81zM300.666 16.19L256 -28.476l-44.666 44.667c-2.929 2.93 -7.678 2.929 -10.606 0.001c-2.929 -2.93 -2.929 -7.678 0 -10.607 l49.969 -49.97c1.406 -1.407 3.314 -2.197 5.303 -2.197s3.897 0.79 5.303 2.196l49.969 49.969c2.929 2.93 2.929 7.678 0 10.607 C308.344 19.117 303.595 19.119 300.666 16.19z"/><glyph unicode="&#xE011;" glyph-name="hotel72" horiz-adv-x="512" d="M179 270.167h56c4.143 0 7.5 3.357 7.5 7.5v56c0 4.143 -3.357 7.5 -7.5 7.5h-56c-4.143 0 -7.5 -3.357 -7.5 -7.5v-56 C171.5 273.524 174.857 270.167 179 270.167zM186.5 326.167h41v-41h-41V326.167zM277 270.167h56c4.143 0 7.5 3.357 7.5 7.5v56c0 4.143 -3.357 7.5 -7.5 7.5h-56c-4.143 0 -7.5 -3.357 -7.5 -7.5v-56 C269.5 273.524 272.857 270.167 277 270.167zM284.5 326.167h41v-41h-41V326.167zM235 170.167c4.143 0 7.5 3.357 7.5 7.5v56c0 4.143 -3.357 7.5 -7.5 7.5h-56c-4.143 0 -7.5 -3.357 -7.5 -7.5v-56 c0 -4.143 3.357 -7.5 7.5 -7.5H235zM186.5 226.167h41v-41h-41V226.167zM277 170.167h56c4.143 0 7.5 3.357 7.5 7.5v56c0 4.143 -3.357 7.5 -7.5 7.5h-56c-4.143 0 -7.5 -3.357 -7.5 -7.5v-56 C269.5 173.524 272.857 170.167 277 170.167zM284.5 226.167h41v-41h-41V226.167zM459.399 305.167h-81.905V385.048c0 4.143 -3.357 7.5 -7.5 7.5H142.006c-4.143 0 -7.5 -3.357 -7.5 -7.5v-79.881H52.601 c-4.143 0 -7.5 -3.357 -7.5 -7.5v-52.035v-56v-44v-56v-90.547c0 -4.143 3.357 -7.5 7.5 -7.5h89.405h227.988h89.405c4.143 0 7.5 3.357 7.5 7.5 v90.547v56v44v56v52.035C466.899 301.81 463.542 305.167 459.399 305.167zM60.101 238.132h41v-41h-41V238.132zM60.101 138.132h41v-41h-41V138.132zM134.506 6.585H60.101v75.547h48.5c4.143 0 7.5 3.357 7.5 7.5v56 c0 4.143 -3.357 7.5 -7.5 7.5h-48.5v29h48.5c4.143 0 7.5 3.357 7.5 7.5v56c0 4.143 -3.357 7.5 -7.5 7.5h-48.5v37.035h74.405V6.585 zM287.3 6.585h-62.6V115.653h62.6V6.585zM362.494 297.667v-291.082H302.3V123.153c0 4.143 -3.357 7.5 -7.5 7.5h-77.6 c-4.143 0 -7.5 -3.357 -7.5 -7.5v-116.568h-60.194V297.667V377.548h212.988V297.667zM451.899 97.132h-41v41h41V97.132zM451.899 197.132h-41v41h41V197.132zM451.899 253.132h-48.5c-4.143 0 -7.5 -3.357 -7.5 -7.5v-56c0 -4.143 3.357 -7.5 7.5 -7.5h48.5v-29 h-48.5c-4.143 0 -7.5 -3.357 -7.5 -7.5v-56c0 -4.143 3.357 -7.5 7.5 -7.5h48.5v-75.547h-74.405V290.167h74.405V253.132z"/><glyph unicode="&#xE012;" glyph-name="hotel73" horiz-adv-x="512" d="M93.616 132.131h325.859c4.143 0 7.5 3.358 7.5 7.5c0 88.446 -62.359 161.99 -143.663 175.413 c0.761 2.562 1.183 5.267 1.183 8.072c0 15.712 -12.783 28.496 -28.495 28.496s-28.495 -12.783 -28.495 -28.496 c0 -2.871 0.438 -5.639 1.232 -8.253c-80.793 -13.877 -142.621 -87.165 -142.621 -175.232C86.116 135.489 89.474 132.131 93.616 132.131zM256 336.611c7.441 0 13.495 -6.054 13.495 -13.496c0 -2.268 -0.568 -4.404 -1.562 -6.282c-3.766 0.261 -7.561 0.407 -11.388 0.407 c-3.963 0 -7.892 -0.153 -11.788 -0.433l-0.644 -0.075c-1.025 1.902 -1.609 4.074 -1.609 6.382 C242.505 330.557 248.559 336.611 256 336.611zM256.546 302.241c83.303 0 151.51 -68.912 155.267 -155.11H101.279 C105.036 233.329 173.243 302.241 256.546 302.241zM433.357 106.442H78.643c-4.143 0 -7.5 -3.358 -7.5 -7.5v-59.054c0 -4.142 3.357 -7.5 7.5 -7.5h354.715c4.143 0 7.5 3.358 7.5 7.5 v59.054C440.857 103.084 437.5 106.442 433.357 106.442zM425.857 47.389H86.143v44.054h339.715V47.389z"/><glyph unicode="&#xE013;" glyph-name="ice80" horiz-adv-x="512" d="M354.171 263.461H163.324c-2.421 0 -4.692 -1.168 -6.101 -3.137c-1.408 -1.969 -1.779 -4.497 -0.997 -6.788l95.423 -279.294 c1.037 -3.035 3.89 -5.075 7.097 -5.075s6.06 2.04 7.097 5.075l95.424 279.294c0.783 2.291 0.412 4.818 -0.997 6.788 C358.863 262.292 356.592 263.461 354.171 263.461zM173.812 248.461h70.384L191.736 196L173.812 248.461zM258.747 -0.13499999999999 l-11.748 34.385l35.69 35.69L258.747 -0.13499999999999zM293.698 102.162l-52.101 -52.101l-19.883 58.197l107.464 97.749L293.698 102.162zM339.267 235.536L216.428 123.727l-19.291 56.462l68.271 68.271h78.273L339.267 235.536zM162.468 274.396c1.05 0 2.117 0.222 3.133 0.69c3.762 1.733 5.407 6.188 3.674 9.95 c-3.287 7.135 -4.953 14.747 -4.953 22.625c0 29.159 22.811 52.927 51.931 54.111c2.919 0.119 5.504 1.922 6.624 4.621 c8.422 20.314 28.07 33.441 50.053 33.441c29.869 0 54.169 -24.3 54.169 -54.168c0 -5.123 -0.729 -10.226 -2.168 -15.168 c-0.847 -2.911 0.141 -6.045 2.505 -7.944c12.458 -10.006 19.837 -24.895 20.245 -40.847c0.105 -4.141 3.552 -7.376 7.689 -7.306 c4.141 0.105 7.412 3.548 7.306 7.689c-0.479 18.736 -8.484 36.32 -22.14 48.961c1.039 4.805 1.563 9.702 1.563 14.615 c0 38.139 -31.029 69.168 -69.169 69.168c-26.496 0 -50.333 -14.933 -61.967 -38.42c-34.924 -3.749 -61.64 -33.094 -61.64 -68.752 c0 -10.06 2.129 -19.784 6.329 -28.9C156.917 276.014 159.631 274.396 162.468 274.396zM248.744 354.921c-4.122 0.49 -7.846 -2.441 -8.34 -6.553c-0.493 -4.113 2.44 -7.847 6.553 -8.34 c13.297 -1.596 24.866 -16.434 28.367 -29.858c0.88 -3.374 3.921 -5.609 7.252 -5.609c0.626 0 1.263 0.079 1.898 0.245 c4.008 1.045 6.41 5.142 5.364 9.15C285.017 332.441 269.353 352.448 248.744 354.921z"/><glyph unicode="&#xE014;" glyph-name="laundry10" horiz-adv-x="512" d="M427.741 371.241H84.259c-4.143 0 -7.5 -3.358 -7.5 -7.5v-343.482c0 -4.142 3.357 -7.5 7.5 -7.5h343.482c4.143 0 7.5 3.358 7.5 7.5 V363.741C435.241 367.883 431.884 371.241 427.741 371.241zM320.244 356.241v-23.999c0 -4.142 3.357 -7.5 7.5 -7.5s7.5 3.358 7.5 7.5 V356.241h32.122v-23.999c0 -4.142 3.357 -7.5 7.5 -7.5s7.5 3.358 7.5 7.5V356.241h37.875v-58.893H91.759V356.241H320.244zM91.759 27.759 v254.59h328.482v-254.59H91.759zM256 240.304c-47.145 0 -85.5 -38.355 -85.5 -85.5s38.355 -85.5 85.5 -85.5s85.5 38.355 85.5 85.5S303.145 240.304 256 240.304zM256 84.304c-38.874 0 -70.5 31.626 -70.5 70.5s31.626 70.5 70.5 70.5s70.5 -31.626 70.5 -70.5S294.874 84.304 256 84.304z"/><glyph unicode="&#xE015;" glyph-name="luggage3" horiz-adv-x="512" d="M438.996 78.776H147.512V327.769c0 2.354 -1.105 4.572 -2.985 5.989L77.519 384.266c-3.309 2.494 -8.011 1.833 -10.504 -1.475 c-2.493 -3.308 -1.833 -8.01 1.475 -10.503l64.022 -48.257v-252.753c0 -4.142 3.358 -7.5 7.5 -7.5h46.417 c-9.018 -6.606 -14.889 -17.266 -14.889 -29.276c0 -20.003 16.273 -36.276 36.276 -36.276s36.276 16.273 36.276 36.276 c0 12.01 -5.871 22.67 -14.889 29.276h130.519c-9.018 -6.606 -14.889 -17.266 -14.889 -29.276c0 -20.003 16.273 -36.276 36.276 -36.276 s36.276 16.273 36.276 36.276c0 12.01 -5.871 22.67 -14.889 29.276h36.5c4.142 0 7.5 3.358 7.5 7.5S443.138 78.776 438.996 78.776zM207.816 13.224c-11.732 0 -21.276 9.544 -21.276 21.276s9.544 21.276 21.276 21.276s21.276 -9.544 21.276 -21.276 S219.548 13.224 207.816 13.224zM381.109 13.224c-11.732 0 -21.276 9.544 -21.276 21.276s9.544 21.276 21.276 21.276 s21.276 -9.544 21.276 -21.276S392.841 13.224 381.109 13.224zM179.04 211.269h208.706c4.142 0 7.5 3.358 7.5 7.5v24h43.75c4.142 0 7.5 3.358 7.5 7.5s-3.358 7.5 -7.5 7.5h-43.75v24 c0 4.142 -3.358 7.5 -7.5 7.5H179.04c-4.142 0 -7.5 -3.358 -7.5 -7.5v-63C171.54 214.626 174.898 211.269 179.04 211.269zM186.54 274.269 h193.706v-48H186.54V274.269zM438.996 155.769h-43.75v24c0 4.142 -3.358 7.5 -7.5 7.5H179.04c-4.142 0 -7.5 -3.358 -7.5 -7.5v-63c0 -4.142 3.358 -7.5 7.5 -7.5 h208.706c4.142 0 7.5 3.358 7.5 7.5v24h43.75c4.142 0 7.5 3.358 7.5 7.5S443.138 155.769 438.996 155.769zM380.246 124.269 H186.54v48h193.706V124.269z"/><glyph unicode="&#xE016;" glyph-name="map104" horiz-adv-x="512" d="M471.859 -6.986l-50 254c-0.692 3.517 -3.775 6.052 -7.359 6.052h-94.491c10.889 27.118 19.04 52.137 19.04 66.278 c0 44.438 -36.153 80.591 -80.591 80.591s-80.591 -36.153 -80.591 -80.591c0 -14.142 8.151 -39.16 19.04 -66.278H97.5 c-3.583 0 -6.667 -2.535 -7.359 -6.052l-50 -254c-0.433 -2.2 0.142 -4.479 1.566 -6.212c1.425 -1.732 3.55 -2.736 5.793 -2.736h417 c2.243 0 4.368 1.004 5.793 2.736C471.717 -11.466 472.292 -9.187 471.859 -6.986zM161.488 62.429h118.961 c8.007 -12.665 24.688 -20.888 43.266 -20.888c12.241 0 23.809 3.548 32.636 9.856l82.361 -52.332H158.853L161.488 62.429zM338.57 99.353c0 0 0.001 0 0.002 -0.001c11.173 -3.885 18.393 -11.808 18.393 -20.186c0 -5.901 -3.424 -10.377 -6.298 -13.092l0 0 c-6.318 -5.97 -16.394 -9.533 -26.952 -9.533c-14.59 0 -27.713 6.736 -31.914 16.382c0 0.001 0 0.002 -0.001 0.002 c-0.886 2.033 -1.335 4.134 -1.335 6.241c0 12.264 15.227 22.625 33.25 22.625C328.919 101.791 333.917 100.971 338.57 99.353zM453.765 7.272l-86.801 55.153c3.257 5.16 5.001 10.893 5.001 16.74c0 12.445 -7.844 23.925 -20.555 30.859l59.826 113.295 L453.765 7.272zM258.458 384.935c36.167 0 65.591 -29.424 65.591 -65.591c0 -28.542 -42.553 -118.49 -65.591 -163.997 c-23.038 45.507 -65.591 135.455 -65.591 163.997C192.867 355.511 222.291 384.935 258.458 384.935zM251.809 135.456 c1.292 -2.478 3.855 -4.03 6.649 -4.03s5.356 1.553 6.649 4.03c1.809 3.467 27.998 53.824 48.701 102.609h88.25l-64.828 -122.77 c-4.365 0.986 -8.886 1.495 -13.515 1.495c-26.605 0 -48.25 -16.879 -48.25 -37.625c0 -0.581 0.021 -1.159 0.054 -1.737H162.112 l6.682 160.637h34.314C223.812 189.28 250 138.923 251.809 135.456zM103.667 238.065h50.114l-6.799 -163.433l-83.848 -42.474 L103.667 238.065zM59.458 13.482l86.81 43.974l-2.429 -58.391H56.62L59.458 13.482zM296.793 320.146c0 21.138 -17.197 38.334 -38.335 38.334s-38.335 -17.196 -38.335 -38.334s17.197 -38.335 38.335 -38.335 S296.793 299.009 296.793 320.146zM235.123 320.146c0 12.866 10.468 23.334 23.335 23.334s23.335 -10.468 23.335 -23.334 c0 -12.867 -10.468 -23.335 -23.335 -23.335S235.123 307.279 235.123 320.146z"/><glyph unicode="&#xE017;" glyph-name="phone378" horiz-adv-x="512" d="M454.999 254.443C454.688 313.456 406.584 361.371 347.5 361.371h-183c-59.276 0 -107.5 -48.225 -107.5 -107.5 c0 -4.143 3.358 -7.5 7.5 -7.5h131c4.142 0 7.5 3.357 7.5 7.5v49.5h106v-49.5c0 -4.143 3.358 -7.5 7.5 -7.5h131 c0.007 0.001 0.013 0 0.02 0c4.142 0 7.5 3.357 7.5 7.5C455.02 254.063 455.013 254.255 454.999 254.443zM324 261.371v49.5 c0 4.143 -3.358 7.5 -7.5 7.5h-121c-4.142 0 -7.5 -3.357 -7.5 -7.5v-49.5H72.301c3.83 47.511 43.719 85 92.199 85h183 c48.48 0 88.369 -37.489 92.199 -85H324zM350.5 227.629h-189c-31.706 0 -57.5 -25.794 -57.5 -57.5v-90c0 -31.706 25.794 -57.5 57.5 -57.5h189 c31.706 0 57.5 25.794 57.5 57.5v90C408 201.835 382.206 227.629 350.5 227.629zM393 80.129c0 -23.435 -19.065 -42.5 -42.5 -42.5 h-189c-23.435 0 -42.5 19.065 -42.5 42.5v90c0 23.435 19.065 42.5 42.5 42.5h189c23.435 0 42.5 -19.065 42.5 -42.5V80.129zM216.557 183.689h-12.386c-3.717 0 -6.731 -3.014 -6.731 -6.732v-12.383c0 -3.719 3.015 -6.732 6.731 -6.732h12.386 c3.717 0 6.731 3.014 6.731 6.732v12.383C223.288 180.676 220.273 183.689 216.557 183.689zM262.193 183.689h-12.386c-3.717 0 -6.731 -3.014 -6.731 -6.732v-12.383c0 -3.719 3.015 -6.732 6.731 -6.732h12.386 c3.717 0 6.731 3.014 6.731 6.732v12.383C268.924 180.676 265.91 183.689 262.193 183.689zM307.829 183.689h-12.386c-3.717 0 -6.731 -3.014 -6.731 -6.732v-12.383c0 -3.719 3.015 -6.732 6.731 -6.732h12.386 c3.717 0 6.731 3.014 6.731 6.732v12.383C314.561 180.676 311.546 183.689 307.829 183.689zM216.557 138.055h-12.386c-3.717 0 -6.731 -3.014 -6.731 -6.732v-12.385c0 -3.719 3.015 -6.732 6.731 -6.732h12.386 c3.717 0 6.731 3.014 6.731 6.732v12.385C223.288 135.041 220.273 138.055 216.557 138.055zM262.193 138.055h-12.386c-3.717 0 -6.731 -3.014 -6.731 -6.732v-12.385c0 -3.719 3.015 -6.732 6.731 -6.732h12.386 c3.717 0 6.731 3.014 6.731 6.732v12.385C268.924 135.041 265.91 138.055 262.193 138.055zM307.829 138.055h-12.386c-3.717 0 -6.731 -3.014 -6.731 -6.732v-12.385c0 -3.719 3.015 -6.732 6.731 -6.732h12.386 c3.717 0 6.731 3.014 6.731 6.732v12.385C314.561 135.041 311.546 138.055 307.829 138.055zM216.557 92.418h-12.386c-3.717 0 -6.731 -3.014 -6.731 -6.732v-12.385c0 -3.719 3.015 -6.732 6.731 -6.732h12.386 c3.717 0 6.731 3.014 6.731 6.732v12.385C223.288 89.404 220.273 92.418 216.557 92.418zM262.193 92.418h-12.386c-3.717 0 -6.731 -3.014 -6.731 -6.732v-12.385c0 -3.719 3.015 -6.732 6.731 -6.732h12.386 c3.717 0 6.731 3.014 6.731 6.732v12.385C268.924 89.404 265.91 92.418 262.193 92.418zM307.829 92.418h-12.386c-3.717 0 -6.731 -3.014 -6.731 -6.732v-12.385c0 -3.719 3.015 -6.732 6.731 -6.732h12.386 c3.717 0 6.731 3.014 6.731 6.732v12.385C314.561 89.404 311.546 92.418 307.829 92.418z"/><glyph unicode="&#xE018;" glyph-name="swimming24" horiz-adv-x="512" d="M40.499 134.06c16.011 0 23.544 -4.195 32.268 -9.053c9.215 -5.131 19.659 -10.947 39.564 -10.947 c19.904 0 30.349 5.816 39.563 10.947c8.722 4.857 16.255 9.053 32.265 9.053c16.011 0 23.544 -4.195 32.268 -9.053 c9.215 -5.131 19.659 -10.947 39.564 -10.947c19.906 0 30.352 5.816 39.566 10.947c8.724 4.857 16.258 9.053 32.269 9.053 c16.013 0 23.547 -4.195 32.271 -9.053c9.215 -5.131 19.66 -10.947 39.566 -10.947c19.907 0 30.352 5.816 39.567 10.947 c8.724 4.857 16.259 9.053 32.271 9.053c4.143 0 7.5 3.357 7.5 7.5s-3.357 7.5 -7.5 7.5c-19.907 0 -30.352 -5.816 -39.567 -10.947 c-8.724 -4.857 -16.259 -9.053 -32.271 -9.053c-7.43 0 -13.022 0.911 -17.768 2.364c0.001 0.046 0.007 0.09 0.007 0.136V318.893 c0 14.796 12.038 26.833 26.834 26.833c10.293 0 19.807 -6.007 24.238 -15.304c1.783 -3.74 6.26 -5.326 9.998 -3.543 c3.738 1.782 5.325 6.258 3.543 9.997c-6.906 14.488 -21.735 23.85 -37.779 23.85c-23.067 0 -41.834 -18.766 -41.834 -41.833v-47.07 h-84.091v47.07c0 14.796 12.038 26.833 26.835 26.833c10.287 0.001 19.8 -6.003 24.234 -15.295c1.783 -3.738 6.262 -5.321 9.998 -3.539 c3.738 1.784 5.323 6.261 3.539 9.999c-6.909 14.48 -21.736 23.836 -37.772 23.835c-23.067 0 -41.834 -18.766 -41.834 -41.833 c0 0 0.043 -188.874 0 -188.882c-3.414 -0.6 -7.251 -0.951 -11.82 -0.951c-16.011 0 -23.544 4.195 -32.268 9.053 c-9.215 5.131 -19.659 10.947 -39.564 10.947c-19.904 0 -30.349 -5.816 -39.563 -10.947c-8.722 -4.857 -16.255 -9.053 -32.265 -9.053 c-16.011 0 -23.544 4.195 -32.268 9.053c-9.215 5.131 -19.659 10.947 -39.564 10.947c-4.143 0 -7.5 -3.357 -7.5 -7.5 S36.356 134.06 40.499 134.06zM366.902 256.822v-54.593h-84.091v54.593H366.902zM282.812 187.229h84.091v-48.845 c-9.099 5.063 -19.52 10.675 -39.076 10.675c-19.905 0 -30.351 -5.816 -39.565 -10.947c-1.838 -1.023 -3.626 -2.014 -5.449 -2.945V187.229zM471.501 58.274c-19.907 0 -30.352 -5.816 -39.567 -10.947c-8.724 -4.857 -16.259 -9.053 -32.271 -9.053s-23.546 4.195 -32.27 9.053 c-9.216 5.131 -19.66 10.947 -39.567 10.947c-19.905 0 -30.351 -5.816 -39.565 -10.947c-8.724 -4.857 -16.258 -9.053 -32.27 -9.053 c-16.011 0 -23.544 4.195 -32.268 9.053c-9.215 5.131 -19.659 10.947 -39.564 10.947c-19.904 0 -30.349 -5.816 -39.563 -10.947 c-8.722 -4.857 -16.255 -9.053 -32.265 -9.053c-16.011 0 -23.544 4.195 -32.268 9.053c-9.215 5.131 -19.659 10.947 -39.564 10.947 c-4.143 0 -7.5 -3.357 -7.5 -7.5s3.357 -7.5 7.5 -7.5c16.011 0 23.544 -4.195 32.268 -9.053c9.215 -5.131 19.659 -10.947 39.564 -10.947 c19.904 0 30.349 5.816 39.563 10.947c8.722 4.857 16.255 9.053 32.265 9.053c16.011 0 23.544 -4.195 32.268 -9.053 c9.215 -5.131 19.659 -10.947 39.564 -10.947c19.906 0 30.352 5.816 39.566 10.947c8.724 4.857 16.258 9.053 32.269 9.053 c16.013 0 23.547 -4.195 32.271 -9.053c9.215 -5.131 19.66 -10.947 39.566 -10.947c19.907 0 30.352 5.816 39.567 10.947 c8.724 4.857 16.259 9.053 32.271 9.053c4.143 0 7.5 3.357 7.5 7.5S475.644 58.274 471.501 58.274z"/><glyph unicode="&#xE019;" glyph-name="toilets1" horiz-adv-x="512" d="M208.498 346.216c0 37.22 -30.28 67.5 -67.5 67.5s-67.5 -30.28 -67.5 -67.5c0 -21.187 9.82 -40.116 25.14 -52.5h-17.64 c-4.143 0 -7.5 -3.358 -7.5 -7.5v-183.284c0 -4.142 3.357 -7.5 7.5 -7.5h15.501l17.075 -118.716c0.531 -3.691 3.694 -6.432 7.424 -6.432h40 c3.729 0 6.893 2.741 7.424 6.432l17.075 118.716h15.501c4.143 0 7.5 3.358 7.5 7.5V286.216c0 4.142 -3.357 7.5 -7.5 7.5h-17.64 C198.678 306.101 208.498 325.029 208.498 346.216zM154.5 -14.716h-27.004l-15.842 110.148h58.688L154.5 -14.716zM193.498 278.716v-168.284h-14.5h-76h-14.5V278.716H193.498zM88.498 346.216c0 28.949 23.552 52.5 52.5 52.5 s52.5 -23.551 52.5 -52.5s-23.552 -52.5 -52.5 -52.5S88.498 317.268 88.498 346.216zM438.313 104.7l-29.909 182.728c-0.594 3.626 -3.727 6.289 -7.401 6.289h-17.64c15.319 12.384 25.14 31.313 25.14 52.5 c0 37.22 -30.28 67.5 -67.5 67.5s-67.5 -30.28 -67.5 -67.5c0 -21.187 9.82 -40.116 25.14 -52.5h-17.64c-3.675 0 -6.808 -2.662 -7.401 -6.289 l-30 -183.284c-0.355 -2.172 0.261 -4.39 1.686 -6.067s3.515 -2.644 5.716 -2.644h45.501l17.075 -118.716 c0.531 -3.691 3.694 -6.432 7.424 -6.432h40c3.729 0 6.893 2.741 7.424 6.432l17.075 118.716h45.501c0.006 0 0.014 0 0.02 0 c4.143 0 7.5 3.358 7.5 7.5C438.521 103.541 438.449 104.133 438.313 104.7zM288.502 346.216c0 28.949 23.552 52.5 52.5 52.5 s52.5 -23.551 52.5 -52.5s-23.552 -52.5 -52.5 -52.5S288.502 317.268 288.502 346.216zM354.504 -14.716H327.5l-15.842 110.148h58.688 L354.504 -14.716zM379.002 110.432h-76h-43.173l27.545 168.284H394.63l27.545 -168.284H379.002z"/><glyph unicode="&#xE01A;" glyph-name="towel3" horiz-adv-x="512" d="M420.86 206.47L261.875 341.905c-5.214 4.875 -8.083 11.481 -8.083 18.621c0 14.052 11.432 25.484 25.484 25.484 s25.484 -11.432 25.484 -25.484c0 -4.142 3.358 -7.5 7.5 -7.5s7.5 3.358 7.5 7.5c0 22.323 -18.161 40.484 -40.484 40.484 s-40.484 -18.161 -40.484 -40.484c0 -8.682 2.832 -17.11 7.918 -24.021L91.194 206.515c-2.421 -2.023 -3.316 -5.347 -2.24 -8.313 c1.077 -2.966 3.895 -4.941 7.05 -4.941h59.073V-9.51c0 -4.142 3.358 -7.5 7.5 -7.5h186.845c4.142 0 7.5 3.358 7.5 7.5V193.261h59.074 c3.143 0 5.952 1.959 7.038 4.909S423.252 204.432 420.86 206.47zM341.922 -2.01H170.077V212.26h171.845V-2.01zM356.922 208.261 v11.5c0 4.142 -3.358 7.5 -7.5 7.5H162.577c-4.142 0 -7.5 -3.358 -7.5 -7.5v-11.5h-38.406l140.801 117.69l138.155 -117.69H356.922z"/><glyph unicode="&#xE01B;" glyph-name="two400" horiz-adv-x="512" d="M469.996 231.329c0 23.885 -5.692 47.311 -16.463 67.743c-1.298 2.462 -3.852 4.003 -6.635 4.003h-132.11 c4.368 23.372 6.589 50.527 6.589 80.798c0 4.142 -3.357 7.5 -7.5 7.5H49.504c-4.143 0 -7.5 -3.358 -7.5 -7.5 c0 -75.53 13.205 -128.684 40.369 -162.5c21.746 -27.072 51.837 -41.035 91.816 -42.565v-171.181h-52.818c-4.143 0 -7.5 -3.358 -7.5 -7.5 s3.357 -7.5 7.5 -7.5h120.637c4.143 0 7.5 3.358 7.5 7.5s-3.357 7.5 -7.5 7.5h-52.818V178.814c19.401 0.736 36.271 4.379 51.204 11.062 c14.73 -50.394 55.554 -87.537 104.358 -91.013v-91.236h-52.818c-4.143 0 -7.5 -3.358 -7.5 -7.5s3.357 -7.5 7.5 -7.5H412.57 c4.143 0 7.5 3.358 7.5 7.5s-3.357 7.5 -7.5 7.5h-52.818v91.236C421.194 103.239 469.996 160.975 469.996 231.329zM454.693 240.2 H249.811c1.104 16.807 5.324 33.139 12.413 47.875H442.28C449.369 273.339 453.589 257.007 454.693 240.2zM306.33 376.374 c-0.205 -16.172 -1.085 -31.337 -2.618 -45.395H59.688c-1.513 13.743 -2.429 28.815 -2.638 45.395H306.33zM181.689 193.661 c-45.371 0 -103.409 14.164 -120.042 122.317h240.116c-0.675 -4.431 -1.421 -8.737 -2.243 -12.903h-41.915 c-2.783 0 -5.337 -1.541 -6.635 -4.003c-10.771 -20.433 -16.463 -43.858 -16.463 -67.743c0 -9.091 0.816 -17.971 2.368 -26.553 C221.417 197.305 203.332 193.661 181.689 193.661zM249.646 225.2h205.211c-2.792 -62.086 -47.746 -111.615 -102.605 -111.615 S252.438 163.114 249.646 225.2z"/><glyph unicode="&#xE01C;" glyph-name="widescreen10" horiz-adv-x="512" d="M443 353.3H69c-4.142 0 -7.5 -3.358 -7.5 -7.5v-254c0 -4.143 3.358 -7.5 7.5 -7.5h139.029l-10.802 -38.6h-22.894 c-4.142 0 -7.5 -3.357 -7.5 -7.5s3.358 -7.5 7.5 -7.5h28.583h106.167h0.02h28.563c4.142 0 7.5 3.357 7.5 7.5s-3.358 7.5 -7.5 7.5h-22.895 l-10.802 38.6H443c4.142 0 7.5 3.357 7.5 7.5v254C450.5 349.942 447.142 353.3 443 353.3zM299.196 45.7h-86.393l10.802 38.6h64.788 L299.196 45.7zM435.5 99.3H294.083h-76.167H76.5v239h359V99.3zM443 119.434H74.941c-4.142 0 -7.5 3.357 -7.5 7.5s3.358 7.5 7.5 7.5H443c4.142 0 7.5 -3.357 7.5 -7.5 S447.142 119.434 443 119.434z"/><glyph unicode="&#xE01D;" glyph-name="woman129" horiz-adv-x="512" d="M260.501 297.526c-0.593 3.626 -3.727 6.288 -7.401 6.288h-17.639c15.319 12.385 25.139 31.313 25.139 52.5 c0 37.22 -30.28 67.5 -67.5 67.5s-67.5 -30.28 -67.5 -67.5c0 -21.188 9.82 -40.115 25.139 -52.5H133.1c-3.674 0 -6.808 -2.662 -7.401 -6.288 l-30 -183.283c-0.355 -2.172 0.261 -4.391 1.686 -6.068c1.425 -1.677 3.515 -2.644 5.716 -2.644h45.501l17.075 -118.716 c0.531 -3.692 3.694 -6.433 7.424 -6.433h40c3.729 0 6.893 2.74 7.424 6.433l17.075 118.716H283.1c0.007 0 0.013 0 0.02 0 c4.142 0 7.5 3.357 7.5 7.5c0 0.609 -0.073 1.201 -0.209 1.768L260.501 297.526zM140.6 356.314c0 28.948 23.551 52.5 52.5 52.5 s52.5 -23.552 52.5 -52.5s-23.551 -52.5 -52.5 -52.5S140.6 327.366 140.6 356.314zM206.602 -4.617h-27.003l-15.843 110.148h58.688 L206.602 -4.617zM231.1 120.531h-76h-43.172l27.544 168.283h107.256l27.544 -168.283H231.1zM408.9 181.552h-64.5v75.195c0 4.143 -3.358 7.5 -7.5 7.5s-7.5 -3.357 -7.5 -7.5v-82.695v-12.223v-145.56 c-11.684 -3.628 -20.193 -14.538 -20.193 -27.4c0 -15.816 12.867 -28.684 28.684 -28.684c12.863 0 23.775 8.511 27.402 20.197H408.9 c4.142 0 7.5 3.357 7.5 7.5V174.052C416.4 178.194 413.042 181.552 408.9 181.552zM337.89 -24.814 c-7.545 0 -13.684 6.139 -13.684 13.684s6.138 13.684 13.684 13.684s13.684 -6.139 13.684 -13.684S345.436 -24.814 337.89 -24.814zM401.4 -4.617h-35.581c-2.471 10.595 -10.824 18.946 -21.419 21.416v145.03v4.723h57V-4.617z"/></font>
</defs>
</svg>
